<?xml version="1.0" standalone="no"?>
<!DOCTYPE svg PUBLIC "-//W3C//DTD SVG 20010904//EN"
 "http://www.w3.org/TR/2001/REC-SVG-20010904/DTD/svg10.dtd">
<svg version="1.0" xmlns="http://www.w3.org/2000/svg"
 width="255.000000pt" height="405.000000pt" viewBox="0 0 255.000000 405.000000"
 preserveAspectRatio="xMidYMid meet">
<metadata>
Created by potrace 1.16, written by Peter Selinger 2001-2019
</metadata>
<g transform="translate(0.000000,405.000000) scale(0.100000,-0.100000)"
fill="#000000" stroke="none">
<path d="M515 3966 c-137 -45 -252 -145 -312 -273 -34 -70 -38 -88 -41 -174
-5 -111 11 -182 61 -268 43 -77 132 -161 213 -202 67 -33 72 -34 189 -34 115
0 123 1 188 32 183 87 294 293 272 501 -20 189 -109 322 -265 396 -57 27 -77
31 -165 33 -63 2 -115 -2 -140 -11z"/>
</g>
</svg>
