<?xml version="1.0" standalone="no"?>
<!DOCTYPE svg PUBLIC "-//W3C//DTD SVG 20010904//EN"
 "http://www.w3.org/TR/2001/REC-SVG-20010904/DTD/svg10.dtd">
<svg version="1.0" xmlns="http://www.w3.org/2000/svg"
 width="507.000000pt" height="224.000000pt" viewBox="0 0 507.000000 224.000000"
 preserveAspectRatio="xMidYMid meet">
<metadata>
Created by potrace 1.16, written by Peter Selinger 2001-2019
</metadata>
<g transform="translate(0.000000,224.000000) scale(0.100000,-0.100000)"
fill="#000000" stroke="none">
<path d="M204 1990 c-74 -30 -69 -142 8 -169 36 -13 90 6 107 37 42 79 -33
165 -115 132z"/>
<path d="M1148 1985 c-77 -42 -44 -165 46 -168 91 -3 126 126 46 168 -36 18
-57 18 -92 0z"/>
<path d="M2092 1975 c-54 -45 -42 -124 23 -151 62 -26 125 20 125 90 0 36 -39
76 -81 82 -28 5 -41 1 -67 -21z"/>
<path d="M3064 1990 c-49 -20 -66 -77 -39 -129 29 -56 125 -58 154 -3 42 79
-33 165 -115 132z"/>
<path d="M4008 1985 c-78 -43 -43 -167 47 -167 93 0 126 125 44 167 -35 18
-56 18 -91 0z"/>
<path d="M176 1229 c-35 -41 -34 -83 3 -120 60 -59 151 -22 151 63 0 85 -100
122 -154 57z"/>
<path d="M922 1245 c-12 -9 -26 -30 -30 -48 -26 -95 80 -156 150 -87 26 27 30
36 25 67 -12 73 -87 108 -145 68z"/>
<path d="M1866 1229 c-35 -41 -34 -83 3 -120 59 -59 151 -22 151 61 0 85 -100
124 -154 59z"/>
<path d="M2085 1235 c-56 -55 -15 -155 62 -155 25 0 43 8 64 29 37 37 38 79 3
120 -34 41 -92 44 -129 6z"/>
<path d="M3036 1229 c-35 -41 -34 -83 3 -120 60 -60 151 -23 151 61 0 56 -34
90 -89 90 -32 0 -44 -6 -65 -31z"/>
<path d="M4726 1229 c-35 -41 -34 -83 3 -120 59 -59 151 -22 151 61 0 85 -100
124 -154 59z"/>
<path d="M2085 495 c-35 -34 -34 -93 1 -126 37 -35 98 -33 130 4 27 32 30 66
9 106 -16 33 -33 41 -81 41 -24 0 -43 -8 -59 -25z"/>
<path d="M3036 494 c-44 -45 -32 -110 25 -140 62 -32 129 9 129 78 0 82 -96
120 -154 62z"/>
<path d="M3993 498 c-29 -33 -35 -57 -22 -95 11 -33 51 -63 84 -63 30 0 72 29
85 59 14 35 2 85 -27 107 -30 22 -96 17 -120 -8z"/>
</g>
</svg>
